<svg xmlns="http://www.w3.org/2000/svg" width="811" height="213"><g><defs><linearGradient id="idkV6_iv9ang-1341905049" x1="0.5092357175780917" x2="0.49076428242190834" y1="1" y2="5.551115123125783e-17"><stop offset="0" stop-color="rgb(134,91,241)" stop-opacity="1"></stop><stop offset="1" stop-color="rgb(39,224,183)" stop-opacity="1"></stop></linearGradient></defs><path d="M 607.818 66.967 L 607.818 61.019 C 607.818 58.697 608.001 56.377 608.364 54.081 C 609.395 47.523 611.891 41.257 615.68 35.712 L 616.293 34.817 L 618.144 32.335 C 622.537 26.445 627.601 21.044 633.241 16.233 C 642.306 10.11 652.563 5.806 663.4 3.578 L 667.138 2.811 L 675.065 2.259 C 679.636 1.941 684.231 2.331 688.681 3.414 C 692.665 4.386 696.483 5.901 700.019 7.913 L 702.855 9.525 C 705.876 11.243 708.75 13.188 711.451 15.342 L 719.041 21.394 L 724.241 26.465 C 727.124 29.274 729.638 32.411 731.726 35.807 L 731.83 35.975 C 733.891 39.325 735.513 42.905 736.661 46.636 C 737.623 49.762 738.247 52.975 738.525 56.224 L 739.167 63.724 L 739.167 75.289 C 739.168 79.472 738.396 83.623 736.885 87.547 L 734.93 92.633 C 734.837 92.905 735.237 93.068 735.368 92.81 L 739.127 85.483 C 739.154 85.432 739.185 85.384 739.222 85.338 L 743.404 80.244 L 743.953 79.601 C 746.96 76.083 751.416 74.049 756.115 74.049 L 762.904 74.65 C 766.131 74.937 769.305 75.643 772.338 76.753 C 774.935 77.702 777.409 78.936 779.71 80.432 L 782.597 82.308 L 788.952 87.47 C 793.163 90.21 796.822 93.663 799.748 97.658 L 800.604 98.827 L 804.841 106.054 L 806.96 111.216 L 807.279 112.464 C 808.474 117.123 809.078 121.904 809.078 126.703 L 809.078 131.299 C 809.078 133.733 808.792 136.16 808.224 138.53 L 808.087 139.102 C 807.343 142.216 806.062 145.188 804.295 147.895 L 803.919 148.467 C 801.749 151.797 798.801 154.597 795.308 156.643 L 785.775 161.806 L 783.088 163.55 C 780.675 165.121 778.731 167.268 777.447 169.78 L 776.326 171.965 C 776.27 172.074 776.196 172.173 776.108 172.259 C 775.375 172.974 774.122 172.468 774.122 171.459 L 774.122 161.858 C 774.124 160.506 773.572 159.209 772.587 158.244 L 766.707 152.513 L 765.68 151.313 C 762.857 148.007 759.55 145.11 755.863 142.713 C 753.217 140.994 750.391 139.545 747.431 138.391 L 746.681 138.098 C 743.098 136.701 739.366 135.683 735.552 135.064 L 734.087 134.825 C 730.419 134.229 726.705 133.929 722.985 133.929 L 706.626 133.929 C 701.511 133.929 696.42 134.624 691.501 135.994 L 690.384 136.403 C 685.508 138.187 681.011 140.807 677.111 144.136 C 675.405 145.591 673.821 147.172 672.374 148.866 L 669.256 152.513 L 667.162 155.232 C 664.324 158.924 661.834 162.851 659.723 166.967 L 657.911 169.91 C 657.003 171.386 655.968 172.786 654.815 174.095 L 653.689 175.378 C 651.395 177.991 648.52 180.077 645.276 181.485 C 642.235 182.803 638.937 183.486 635.601 183.487 L 621.59 183.487 C 619.339 183.483 617.239 182.4 615.994 180.6 C 612.638 188.024 608.126 194.916 602.613 201.037 L 3.097 201.037 C 2.313 194.741 1.92 188.405 1.922 182.064 C 1.922 101.312 64.996 35.849 142.804 35.849 C 201.189 35.849 251.279 72.708 272.646 125.229 C 280.54 122.214 288.96 120.668 297.456 120.676 C 310.826 120.676 323.306 124.444 333.869 130.965 C 350.813 114.867 373.349 105.049 398.085 105.049 C 418.798 105.049 437.969 111.932 453.603 123.623 C 465.305 92.038 497.681 69.333 535.789 69.333 C 547.665 69.333 558.985 71.539 569.295 75.531 C 574.709 67.699 583.307 62.636 592.989 62.636 C 598.392 62.636 603.456 64.213 607.818 66.967 Z" fill="url(#idkV6_iv9ang-1341905049)"></path></g><path d="M 607.666 66.653 L 607.09 67.516 L 608.725 66.653 Z M 608.21 53.821 L 609.255 53.978 M 615.522 35.526 L 614.641 34.956 M 616.134 34.635 L 615.278 34.03 L 615.253 34.064 Z M 617.984 32.164 L 617.127 31.559 M 633.069 16.127 L 632.465 15.282 L 632.372 15.354 Z M 663.205 3.524 L 662.988 2.518 M 666.94 2.761 L 666.863 1.735 L 666.722 1.754 Z M 674.861 2.211 L 674.938 3.237 M 688.467 3.361 L 688.723 2.364 M 699.797 7.841 L 699.262 8.729 M 702.631 9.447 L 703.164 8.56 M 711.22 15.241 L 711.89 14.444 M 718.804 21.268 L 719.554 20.542 L 719.476 20.473 Z M 724.001 26.318 L 724.75 25.59 M 731.48 35.621 L 732.389 35.092 M 731.584 35.789 L 730.676 36.318 M 736.411 46.406 L 737.425 46.111 M 738.273 55.955 L 739.33 55.87 M 738.915 63.424 L 739.973 63.424 L 739.969 63.339 Z M 738.428 80.657 L 739.472 80.827 M 736.635 87.149 L 737.628 87.511 M 734.682 92.214 L 733.69 91.853 L 733.678 91.888 Z M 735.119 92.391 L 734.173 91.93 M 738.875 85.093 L 739.823 85.554 M 738.97 84.95 L 738.145 84.307 M 743.149 79.876 L 742.336 79.218 L 742.324 79.233 Z M 743.697 79.236 L 742.884 78.577 M 755.851 73.706 L 755.945 72.683 L 755.851 72.678 Z M 762.635 74.306 L 762.54 75.329 M 772.061 76.399 L 771.689 77.362 M 779.427 80.064 L 780.013 79.207 M 782.312 81.932 L 782.989 81.141 L 782.898 81.076 Z M 788.662 87.073 L 787.985 87.863 L 788.076 87.929 Z M 799.451 97.219 L 800.312 96.622 M 800.306 98.383 L 801.225 97.873 L 801.167 97.786 Z M 804.54 105.581 L 805.522 105.198 L 805.458 105.07 Z M 806.657 110.721 L 807.683 110.472 L 807.639 110.34 Z M 806.976 111.964 L 805.95 112.214 M 807.92 137.923 L 806.89 137.689 M 807.783 138.493 L 808.814 138.727 M 803.994 147.249 L 803.1 146.697 M 803.618 147.819 L 804.512 148.371 M 795.014 155.962 L 795.528 156.861 L 795.557 156.844 Z M 785.488 161.103 L 784.973 160.204 L 784.9 160.247 Z M 782.803 162.841 L 782.216 161.985 M 777.166 169.045 L 778.112 169.505 M 776.046 171.221 L 775.099 170.761 L 775.099 170.762 Z M 775.828 171.514 L 775.079 170.787 M 772.31 157.556 L 771.563 158.283 M 766.435 151.849 L 765.623 152.508 L 765.685 152.577 Z M 765.409 150.654 L 764.595 151.312 M 755.599 142.089 L 755.01 142.945 M 747.173 137.785 L 747.567 136.831 M 746.424 137.493 L 746.03 138.448 M 735.303 134.471 L 735.479 133.457 L 735.477 133.457 Z M 733.839 134.234 L 733.665 135.248 M 691.285 135.398 L 690.994 134.409 L 690.911 134.435 Z M 690.169 135.805 L 690.541 136.767 M 676.906 143.506 L 677.604 144.279 M 672.172 148.216 L 671.36 147.558 M 669.057 151.849 L 668.244 151.191 L 668.21 151.232 Z M 666.965 154.557 L 666.119 153.941 M 659.531 166.244 L 660.439 166.773 L 660.476 166.704 Z M 657.72 169.174 L 658.629 169.704 M 654.627 173.342 L 653.826 172.674 M 653.502 174.62 L 654.303 175.288 M 645.095 180.702 L 645.525 181.641 M 615.835 179.82 L 616.709 179.241 L 614.866 179.406 Z M 602.464 200.174 L 602.464 201.202 L 603.261 200.852 Z M 493.3 200.174 L 493.3 201.202 M 468.917 200.174 L 468.917 199.146 M 365.221 200.174 L 365.221 199.146 M 302.882 200.174 L 302.882 201.202 M 282.602 200.174 L 282.602 199.146 M 3.401 200.174 L 2.351 200.299 L 3.401 201.202 Z M 272.746 124.677 L 271.764 125.057 L 273.134 125.635 Z M 333.923 130.389 L 333.357 131.258 L 334.662 131.126 Z M 453.566 123.077 L 452.924 123.893 L 454.562 123.427 Z M 569.171 75.182 L 568.782 76.138 L 570.051 75.757 Z M 606.608 60.73 L 606.608 66.653 L 608.725 66.653 L 608.725 60.73 Z M 607.165 53.665 C 606.794 56.003 606.608 58.365 606.608 60.73 L 608.725 60.73 C 608.725 58.469 608.902 56.212 609.255 53.978 Z M 614.641 34.956 C 610.769 40.604 608.218 46.986 607.164 53.665 L 609.255 53.978 C 610.265 47.595 612.702 41.496 616.402 36.098 Z M 615.253 34.064 L 614.641 34.956 L 616.402 36.098 L 617.014 35.205 Z M 617.127 31.559 L 615.278 34.03 L 616.989 35.239 L 618.839 32.769 Z M 632.372 15.354 C 626.677 20.196 621.563 25.632 617.127 31.559 L 618.839 32.769 C 623.183 26.965 628.189 21.643 633.765 16.901 Z M 662.988 2.518 C 652.02 4.765 641.639 9.107 632.465 15.282 L 633.672 16.972 C 642.614 10.952 652.733 6.721 663.424 4.531 Z M 666.722 1.754 L 662.988 2.518 L 663.424 4.531 L 667.158 3.766 Z M 674.787 1.185 L 666.863 1.735 L 667.016 3.787 L 674.937 3.237 Z M 688.723 2.364 C 684.173 1.259 679.468 0.861 674.787 1.185 L 674.938 3.237 C 679.394 2.927 683.873 3.306 688.208 4.359 Z M 700.33 6.952 C 696.709 4.901 692.801 3.356 688.722 2.364 L 688.208 4.359 C 692.092 5.303 695.815 6.774 699.263 8.729 Z M 703.164 8.56 L 700.33 6.952 L 699.262 8.729 L 702.098 10.335 Z M 711.89 14.444 C 709.148 12.265 706.23 10.298 703.164 8.56 L 702.098 10.335 C 705.068 12.019 707.895 13.925 710.551 16.036 Z M 719.475 20.473 L 711.89 14.444 L 710.551 16.036 L 718.133 22.064 Z M 724.75 25.59 L 719.553 20.542 L 718.055 21.995 L 723.254 27.044 Z M 732.389 35.092 C 730.257 31.639 727.691 28.448 724.75 25.59 L 723.254 27.044 C 726.072 29.783 728.53 32.841 730.572 36.15 Z M 732.493 35.26 L 732.389 35.092 L 730.572 36.15 L 730.676 36.318 Z M 737.425 46.111 C 736.254 42.313 734.597 38.668 732.491 35.26 L 730.676 36.318 C 732.69 39.58 734.276 43.067 735.397 46.701 Z M 739.33 55.87 C 739.046 52.563 738.408 49.293 737.425 46.111 L 735.397 46.701 C 736.337 49.746 736.948 52.876 737.219 56.041 Z M 739.97 63.339 L 739.33 55.87 L 737.219 56.041 L 737.861 63.51 Z M 739.973 70.622 L 739.973 63.424 L 737.856 63.424 L 737.856 70.622 Z M 739.973 74.941 L 739.973 70.622 L 737.856 70.622 L 737.856 74.941 Z M 739.472 80.827 C 739.806 78.882 739.973 76.913 739.973 74.941 L 737.856 74.941 C 737.856 76.8 737.698 78.656 737.385 80.489 Z M 737.628 87.511 C 738.463 85.344 739.081 83.106 739.472 80.827 L 737.385 80.489 C 737.016 82.637 736.433 84.747 735.645 86.789 Z M 735.672 92.575 L 737.628 87.511 L 735.645 86.789 L 733.69 91.853 Z M 734.173 91.93 C 734.273 91.739 734.449 91.595 734.661 91.529 C 735.041 91.413 735.452 91.578 735.632 91.918 C 735.742 92.124 735.75 92.351 735.685 92.539 L 733.678 91.888 C 733.168 93.371 735.346 94.25 736.066 92.85 Z M 737.928 84.633 L 734.173 91.93 L 736.066 92.85 L 739.823 85.554 Z M 738.145 84.307 C 738.06 84.408 737.987 84.517 737.928 84.633 L 739.823 85.554 C 739.815 85.566 739.807 85.579 739.798 85.591 Z M 742.324 79.233 L 738.145 84.307 L 739.798 85.592 L 743.975 80.518 Z M 742.884 78.577 L 742.336 79.218 L 743.962 80.534 L 744.51 79.894 Z M 755.851 72.678 C 750.842 72.678 746.092 74.839 742.884 78.577 L 744.511 79.894 C 747.292 76.635 751.454 74.741 755.851 74.734 Z M 762.73 73.281 L 755.945 72.683 L 755.755 74.73 L 762.54 75.329 Z M 772.434 75.436 C 769.316 74.3 766.052 73.575 762.73 73.281 L 762.54 75.329 C 765.672 75.607 768.75 76.291 771.689 77.362 Z M 780.013 79.207 C 777.647 77.675 775.104 76.409 772.434 75.436 L 771.689 77.362 C 774.207 78.278 776.605 79.471 778.84 80.919 Z M 782.898 81.076 L 780.013 79.207 L 778.84 80.919 L 781.726 82.787 Z M 789.34 86.283 L 782.989 81.141 L 781.635 82.722 L 787.985 87.863 Z M 800.312 96.622 C 797.314 92.54 793.565 89.015 789.249 86.218 L 788.076 87.929 C 792.177 90.588 795.74 93.938 798.589 97.816 Z M 801.167 97.786 L 800.312 96.622 L 798.589 97.816 L 799.444 98.981 Z M 805.458 105.07 L 801.225 97.873 L 799.387 98.893 L 803.621 106.091 Z M 807.639 110.34 L 805.522 105.198 L 803.558 105.962 L 805.675 111.103 Z M 808.003 111.715 L 807.683 110.472 L 805.63 110.971 L 805.95 112.214 Z M 809.831 126.145 C 809.831 121.28 809.218 116.434 808.003 111.715 L 805.95 112.214 C 807.123 116.773 807.715 121.45 807.715 126.145 Z M 809.831 130.722 L 809.831 126.145 L 807.715 126.145 L 807.715 130.722 Z M 808.951 138.157 C 809.536 135.719 809.831 133.225 809.831 130.722 L 807.715 130.722 C 807.715 133.068 807.438 135.405 806.89 137.689 Z M 808.814 138.727 L 808.951 138.157 L 806.89 137.689 L 806.751 138.26 Z M 804.886 147.801 C 806.716 145.008 808.043 141.941 808.814 138.727 L 806.751 138.26 C 806.036 141.248 804.802 144.1 803.1 146.698 Z M 804.512 148.371 L 804.886 147.801 L 803.101 146.697 L 802.727 147.268 Z M 795.558 156.844 C 799.19 154.724 802.255 151.823 804.512 148.371 L 802.727 147.268 C 800.646 150.45 797.818 153.125 794.469 155.081 Z M 786.002 162.001 L 795.528 156.861 L 794.499 155.064 L 784.973 160.204 Z M 783.391 163.697 L 786.074 161.958 L 784.901 160.247 L 782.216 161.985 Z M 778.112 169.504 C 779.314 167.162 781.134 165.161 783.391 163.697 L 782.216 161.985 C 779.652 163.65 777.585 165.924 776.219 168.585 Z M 776.992 171.681 L 778.112 169.504 L 776.219 168.585 L 775.099 170.761 Z M 776.577 172.242 C 776.746 172.077 776.886 171.887 776.992 171.681 L 775.099 170.762 C 775.094 170.771 775.087 170.78 775.079 170.787 Z M 772.786 170.717 C 772.786 172.638 775.178 173.601 776.578 172.242 L 775.079 170.787 C 775.053 170.814 775.036 170.816 775.028 170.819 C 775.007 170.821 774.986 170.818 774.967 170.81 C 774.947 170.802 774.93 170.789 774.917 170.773 C 774.911 170.767 774.903 170.753 774.903 170.717 Z M 772.786 161.155 L 772.786 170.717 L 774.903 170.717 L 774.903 161.155 Z M 771.563 158.282 C 772.348 159.05 772.787 160.081 772.786 161.155 L 774.903 161.155 C 774.905 159.538 774.243 157.984 773.059 156.829 Z M 765.685 152.577 L 771.563 158.283 L 773.059 156.829 L 767.184 151.122 Z M 764.595 151.312 L 765.622 152.508 L 767.248 151.191 L 766.223 149.996 Z M 755.01 142.945 C 758.61 145.278 761.838 148.096 764.596 151.312 L 766.223 149.996 C 763.336 146.628 759.955 143.676 756.185 141.234 Z M 746.782 138.74 C 749.671 139.862 752.429 141.272 755.01 142.945 L 756.185 141.234 C 753.481 139.482 750.592 138.006 747.567 136.831 Z M 746.03 138.448 L 746.782 138.74 L 747.567 136.831 L 746.817 136.539 Z M 735.129 135.485 C 738.865 136.09 742.52 137.084 746.03 138.448 L 746.817 136.539 C 743.166 135.12 739.365 134.086 735.479 133.457 Z M 733.665 135.248 L 735.13 135.485 L 735.477 133.457 L 734.013 133.219 Z M 722.746 134.369 C 726.404 134.369 730.056 134.663 733.665 135.248 L 734.013 133.219 C 730.29 132.616 726.521 132.313 722.746 132.313 Z M 706.399 134.369 L 722.746 134.369 L 722.746 132.313 L 706.399 132.313 Z M 691.574 136.387 C 696.392 135.05 701.383 134.37 706.399 134.369 L 706.399 132.313 C 701.189 132.313 696.003 133.019 690.994 134.409 Z M 690.541 136.767 L 691.657 136.361 L 690.911 134.435 L 689.798 134.841 Z M 677.604 144.279 C 681.405 141.046 685.789 138.5 690.541 136.767 L 689.798 134.841 C 684.806 136.662 680.202 139.336 676.21 142.732 Z M 672.985 148.875 C 674.397 147.23 675.942 145.693 677.604 144.279 L 676.21 142.732 C 674.464 144.217 672.842 145.83 671.36 147.558 Z M 669.87 152.508 L 672.986 148.875 L 671.361 147.558 L 668.244 151.191 Z M 667.812 155.174 L 669.903 152.466 L 668.21 151.232 L 666.119 153.941 Z M 660.476 166.704 C 662.559 162.66 665.014 158.801 667.812 155.174 L 666.119 153.941 C 663.244 157.666 660.722 161.63 658.584 165.785 Z M 658.629 169.704 L 660.439 166.773 L 658.622 165.716 L 656.813 168.645 Z M 655.432 174.012 C 656.621 172.663 657.69 171.222 658.629 169.704 L 656.812 168.645 C 655.936 170.065 654.937 171.413 653.826 172.674 Z M 654.304 175.288 L 655.432 174.012 L 653.826 172.674 L 652.697 173.95 Z M 645.525 181.641 C 648.911 180.178 651.91 178.007 654.303 175.289 L 652.697 173.951 C 650.507 176.437 647.762 178.423 644.665 179.763 Z M 635.427 183.724 C 638.91 183.723 642.352 183.013 645.525 181.641 L 644.665 179.763 C 641.762 181.017 638.613 181.667 635.427 181.667 Z M 621.426 183.724 L 635.427 183.724 L 635.427 181.667 L 621.426 181.667 Z M 614.959 180.398 C 616.369 182.41 618.748 183.724 621.426 183.724 L 621.426 181.667 C 619.529 181.664 617.759 180.754 616.71 179.241 Z M 614.866 179.407 C 611.556 186.704 607.106 193.478 601.669 199.497 L 603.261 200.852 C 608.841 194.675 613.407 187.723 616.803 180.233 Z M 602.464 199.146 L 493.3 199.146 L 493.3 201.202 L 602.464 201.202 Z M 493.3 199.146 L 468.917 199.146 L 468.917 201.202 L 493.3 201.202 Z M 468.917 199.146 L 365.221 199.146 L 365.221 201.202 L 468.917 201.202 Z M 365.221 199.146 L 302.882 199.146 L 302.882 201.202 L 365.221 201.202 Z M 302.882 199.146 L 282.602 199.146 L 282.602 201.202 L 302.882 201.202 Z M 282.602 199.146 L 229.853 199.146 L 229.853 201.202 L 282.602 201.202 Z M 229.853 199.146 L 3.401 199.146 L 3.401 201.202 L 229.853 201.202 Z M 4.452 200.05 C 3.673 193.82 3.284 187.552 3.285 181.278 L 1.169 181.278 C 1.169 187.723 1.57 194.072 2.351 200.299 Z M 3.285 181.278 C 3.285 101.363 65.9 36.691 143.002 36.691 L 143.002 34.635 C 64.608 34.635 1.169 100.351 1.169 181.278 Z M 143.002 36.691 C 200.863 36.691 250.552 73.1 271.764 125.057 L 273.73 124.298 C 252.235 71.643 201.821 34.635 143.002 34.635 Z M 273.134 125.635 C 280.898 122.678 289.18 121.163 297.537 121.17 L 297.537 119.113 C 288.916 119.106 280.371 120.669 272.361 123.72 Z M 297.537 121.17 C 310.69 121.17 322.966 124.864 333.357 131.258 L 334.491 129.521 C 323.77 122.926 311.104 119.113 297.537 119.113 Z M 334.662 131.126 C 351.411 115.265 373.67 105.609 398.091 105.609 L 398.091 103.551 C 373.077 103.551 350.297 113.448 333.183 129.653 Z M 398.091 105.609 C 418.542 105.609 437.471 112.38 452.924 123.893 L 454.211 122.261 C 438.413 110.489 419.034 103.551 398.091 103.551 Z M 454.562 123.427 C 466.101 92.391 498.044 70.038 535.691 70.038 L 535.691 67.982 C 497.182 67.982 464.422 90.851 452.571 122.728 Z M 535.691 70.038 C 547.422 70.038 558.602 72.21 568.782 76.138 L 569.564 74.226 C 559.138 70.203 547.694 67.982 535.691 67.982 Z M 570.051 75.757 C 575.29 68.202 583.572 63.369 592.847 63.369 L 592.847 61.313 C 582.775 61.313 573.874 66.564 568.296 74.608 Z M 592.847 63.369 C 598.03 63.369 602.892 64.874 607.09 67.516 L 608.241 65.79 C 603.722 62.946 598.461 61.313 592.847 61.313 Z" fill="rgb(0,0,0)"></path><path d="M 675.193 3.849 L 1149.878 -659.53 L 1188.314 -659.53 L 1200.485 200.81" fill="transparent" stroke-width="1.28" stroke="#AAA"></path></svg>