<svg xmlns="http://www.w3.org/2000/svg" width="368" height="136"><path d="M 191.854 33.358 L 177.268 48.755 L 171.659 48.755 L 162.683 39.774 L 153.707 26.943 L 138 17.962 L 107.707 2.566 L 63.951 2.566 L 33.659 7.698 L 16.829 15.396 L 3.366 26.943 L 3.366 132.151 L 177.268 132.151 L 299.561 132.151 L 356.78 132.151 L 362.951 130.226 L 364.634 128.302 L 364.634 115.472 L 361.268 94.943 L 354.537 76.981 L 344.439 56.453 L 323.122 33.358 L 299.561 15.396 L 274.878 7.698 L 254.683 7.698 L 232.244 11.547 L 209.805 23.094 Z" fill="rgb(130,96,239)"></path><path d="M 162.683 73.132 L 164.927 62.868 L 177.268 48.755 M 177.268 48.755 L 191.854 33.358 L 209.805 23.094 L 232.244 11.547 L 254.683 7.698 L 274.878 7.698 L 299.561 15.396 L 323.122 33.358 L 344.439 56.453 L 354.537 76.981 L 361.268 94.943 L 364.634 115.472 L 364.634 128.302 L 362.951 130.226 M 177.268 48.755 L 171.659 48.755 L 162.683 39.774 L 153.707 26.943 L 138 17.962 L 107.707 2.566 L 63.951 2.566 L 33.659 7.698 L 16.829 15.396 L 3.366 26.943 L 3.366 132.151 L 177.268 132.151 L 299.561 132.151 L 356.78 132.151 L 362.951 130.226 M 361.268 132.151 L 362.951 130.226" fill="transparent" stroke-width="1.34" stroke="rgb(0,0,0)" stroke-miterlimit="10"></path></svg>