<svg xmlns="http://www.w3.org/2000/svg" width="602" height="645"><path d="M 43 1 L 270 254.5 L 331.5 199.5 L 352 252.5 L 352 342.5 L 485 418 L 601 520.5 L 502.5 644 L 287 630.5 L 108 630.5 L 81 630.5 Z" fill="rgb(0, 0, 0)" stroke="rgb(0, 0, 0)"></path><path d="M 17.904 179.142 L 0 143.424 L 45.404 73.142 L 96.74 0 L 124.099 18.453 L 85.404 60.142 L 63.023 88.238 C 62.277 89.174 61.565 90.137 60.889 91.124 L 31.404 134.142 L 24.654 156.642 Z" transform="translate(30.33 132.603) rotate(-88 62.049 89.571)" fill="rgb(255, 255, 255)"></path><path d="M 27.358 161.877 L 0 143.424 L 96.74 0 L 124.099 18.453 L 102.549 36.438 L 62.549 88.938 Z" transform="translate(309 345) rotate(-84 62.049 80.938)" fill="rgb(255, 255, 255)"></path></svg>