<svg xmlns="http://www.w3.org/2000/svg" width="681" height="873"><path d="M 80.178 676.315 C 113.765 624.001 167.351 603.815 223.281 554.132 C 279.21 504.45 337.482 425.271 389.219 353.874 C 492.692 211.079 561.246 0.507 561.246 0.507 L 604.38 0.507 L 604.38 859.843 L 148.685 871.503 L 23.85 837.536 C 23.85 837.536 -54.171 885.572 80.178 676.315 Z" fill="rgb(0, 0, 0)" stroke="rgb(0, 0, 0)"></path><path d="M 523.183 389.865 L 541.355 426.083 L 495.273 497.345 L 443.172 571.509 L 415.405 552.798 L 454.677 510.527 L 477.392 482.039 C 478.149 481.09 478.871 480.114 479.558 479.113 L 509.482 435.494 L 516.333 412.679 Z" fill="rgb(255, 255, 255)"></path><path d="M 523.183 393.921 L 541.045 426.59 L 494.963 497.852 L 442.862 572.016 L 415.095 553.305 L 454.367 511.034 L 476.095 483.783 C 477.508 482.011 478.801 480.146 479.965 478.201 L 501.87 441.577 L 516.023 413.186 Z" fill="rgb(255, 255, 255)"></path><path d="M 303.651 643.416 L 331.417 662.127 L 233.234 807.553 L 205.468 788.842 Z" fill="rgb(255, 255, 255)"></path><path d="M 652.778 175.983 L 680.544 194.694 L 582.361 340.121 L 554.595 321.41 L 576.465 303.174 L 617.062 249.94 Z" fill="rgb(255, 255, 255)"></path></svg>